<?xml version="1.0" standalone="no"?>
<!DOCTYPE svg PUBLIC "-//W3C//DTD SVG 20010904//EN"
 "http://www.w3.org/TR/2001/REC-SVG-20010904/DTD/svg10.dtd">
<svg version="1.0" xmlns="http://www.w3.org/2000/svg"
 width="670.000000pt" height="670.000000pt" viewBox="0 0 670.000000 670.000000"
 preserveAspectRatio="xMidYMid meet">
<metadata>
Created by potrace 1.14, written by Peter Selinger 2001-2017
</metadata>
<g transform="translate(0.000000,670.000000) scale(0.100000,-0.100000)"
fill="#000000" stroke="none">
<path d="M3130 6293 c-199 -15 -509 -79 -705 -146 -327 -112 -630 -277 -897
-489 -132 -104 -372 -344 -476 -476 -325 -410 -531 -887 -614 -1417 -32 -204
-32 -646 0 -850 53 -341 147 -631 301 -931 145 -283 305 -500 540 -735 232
-232 450 -393 727 -536 122 -63 324 -153 343 -153 4 0 14 30 24 68 23 89 61
170 99 209 28 29 31 38 32 100 2 72 37 165 89 235 18 24 26 51 30 101 4 44 29
134 71 260 68 202 79 258 55 294 -17 28 -60 30 -148 7 -55 -14 -64 -14 -94 1
-32 15 -36 14 -88 -9 -145 -67 -332 -79 -474 -32 -44 15 -86 33 -94 41 -8 7
-16 48 -20 99 l-7 86 76 29 c98 38 104 39 180 50 41 5 86 5 122 -1 43 -8 94
-6 200 6 331 38 457 64 583 119 50 21 80 26 180 31 92 3 146 12 230 35 60 17
145 38 190 47 44 9 106 29 138 45 31 16 79 32 105 35 60 7 265 79 314 110 23
14 53 24 76 24 38 0 46 4 153 86 30 22 80 56 111 74 87 52 102 106 52 187 -43
68 -100 96 -182 89 -50 -4 -74 -1 -115 15 -163 65 -245 80 -457 84 -112 3
-268 13 -365 25 -197 24 -473 35 -560 23 -50 -7 -70 -5 -120 13 -33 12 -126
34 -206 48 -171 31 -211 42 -261 67 -44 23 -60 18 -75 -21 -13 -35 -21 -36
-105 -10 -264 81 -419 370 -347 645 8 28 25 53 60 84 28 24 58 59 67 78 12 26
28 39 56 49 51 17 85 42 113 84 15 22 81 67 200 139 98 59 257 157 353 218
224 141 341 208 509 293 l136 68 -3 57 c-3 46 0 61 16 78 17 19 20 41 25 167
6 161 17 215 110 530 30 102 60 221 67 265 7 44 20 103 31 132 10 29 21 81 25
117 l7 66 -169 -2 c-93 -1 -189 -3 -214 -5z"/>
<path d="M3891 6213 c-5 -21 -17 -67 -26 -103 -9 -36 -52 -186 -95 -335 -95
-324 -124 -439 -145 -565 -21 -134 -22 -130 25 -130 23 0 55 7 72 16 49 25 85
33 115 25 22 -6 36 -1 70 25 78 59 259 102 384 90 37 -3 97 -15 134 -27 55
-17 78 -31 122 -74 64 -65 67 -88 18 -165 -25 -39 -35 -66 -35 -95 0 -39 -1
-41 -68 -77 -37 -20 -87 -52 -111 -71 -24 -19 -51 -33 -60 -31 -128 27 -218
43 -271 49 -58 5 -70 3 -115 -20 -27 -15 -91 -37 -141 -50 -51 -13 -166 -55
-256 -93 -221 -95 -260 -110 -351 -132 -65 -16 -86 -26 -128 -64 -58 -52 -156
-104 -214 -113 -28 -4 -55 -20 -92 -53 -29 -26 -107 -80 -175 -120 -192 -113
-217 -131 -311 -222 -83 -81 -87 -86 -81 -119 4 -19 13 -46 20 -60 17 -35 84
-94 136 -120 24 -12 69 -39 100 -60 37 -25 69 -39 90 -39 18 -1 62 -7 98 -15
36 -8 102 -14 148 -15 46 0 92 -5 102 -10 36 -19 214 -44 300 -41 47 1 130 -5
184 -14 81 -13 109 -14 148 -4 42 10 51 9 67 -6 15 -13 30 -15 77 -10 135 16
448 -24 679 -85 220 -58 274 -82 340 -147 47 -46 91 -75 193 -126 72 -37 132
-73 132 -79 0 -6 12 -35 27 -65 24 -47 26 -57 15 -85 -41 -110 -165 -247 -306
-340 -50 -33 -208 -119 -350 -190 -240 -120 -262 -129 -300 -124 -30 5 -52 1
-81 -13 -58 -28 -135 -46 -342 -81 -101 -17 -204 -39 -230 -49 -43 -16 -53
-26 -90 -92 -23 -41 -44 -78 -47 -84 -3 -5 -25 -71 -50 -145 -57 -175 -107
-292 -278 -645 -77 -159 -149 -310 -160 -335 -39 -89 -86 -220 -79 -224 11 -7
163 -36 271 -51 150 -22 486 -30 650 -16 587 52 1130 268 1592 632 133 105
390 365 495 500 313 403 514 875 595 1394 19 120 22 181 22 425 0 244 -3 305
-22 425 -83 530 -289 1007 -614 1417 -104 132 -344 372 -476 476 -267 212
-570 377 -897 489 -102 35 -365 103 -397 103 -12 0 -20 -12 -27 -37z"/>
</g>
</svg>
